# xmcd CD database file
#
# Track frame offsets:
#	150
#	31528
#	53766
#	77480
#	113563
#	134281
#	155148
#	177737
#	198303
#	221751
#	245387
#	266713
#	286110
#
# Disc length: 4083 seconds
#
# Revision: 0
# Processed by: cddbd v1.5.2PL0 Copyright (c) Steve Scherf et al.
# Submitted via: CDex 1.51
#
DISCID=b30ff10d
DTITLE=Alan Barnes - The Pollwinners playing Girl Talk
DYEAR=1999
DGENRE=Jazz
TTITLE0=Girl Talk (take 1)
TTITLE1=Once in love with Amy
TTITLE2=When Joanna loved me
TTITLE3=I thought about you
TTITLE4=Laura
TTITLE5=Gertrude's Bounce
TTITLE6=Emaline
TTITLE7=I've grown accustomed to her face
TTITLE8=LaRue
TTITLE9=Tangerine
TTITLE10=A portrait of Jennie
TTITLE11=Liza
TTITLE12=Girl Talk (take 2)
EXTD=YEAR: 1999
EXTT0=
EXTT1=
EXTT2=
EXTT3=
EXTT4=
EXTT5=
EXTT6=
EXTT7=
EXTT8=
EXTT9=
EXTT10=
EXTT11=
EXTT12=
PLAYORDER=
